<?xml version="1.0" standalone="no"?>
<!DOCTYPE svg PUBLIC "-//W3C//DTD SVG 20010904//EN"
 "http://www.w3.org/TR/2001/REC-SVG-20010904/DTD/svg10.dtd">
<svg version="1.0" xmlns="http://www.w3.org/2000/svg"
 width="3000.000000pt" height="3000.000000pt" viewBox="0 0 3000.000000 3000.000000"
 preserveAspectRatio="xMidYMid meet" >

<g transform="translate(0.000000,3000.000000) scale(0.100000,-0.100000)"
fill="#000000" stroke="none" color="red" style="color:red; background:red">
<path d="M10367 21222 c-16 -17 -17 -350 -17 -4664 l0 -4645 23 -21 23 -22
586 0 c577 0 586 0 612 21 l26 20 2 3810 3 3809 1300 -3828 1301 -3827 581 -3
c457 -2 582 1 590 10 5 7 593 1696 1307 3753 714 2057 1302 3747 1307 3755 5
9 9 -1596 9 -3731 l0 -3746 23 -21 23 -22 586 0 c577 0 586 0 612 21 l26 20 0
4643 0 4643 -23 21 -23 22 -843 -2 -843 -3 -1144 -3325 c-629 -1829 -1231
-3584 -1336 -3900 -105 -316 -194 -578 -197 -582 -3 -4 -46 120 -95 275 -69
216 -2284 6859 -2474 7417 l-39 115 -945 3 c-905 2 -946 1 -961 -16z" />
</g>
</svg>
